<?xml version="1.0" encoding="utf-8"?>
<svg xmlns="http://www.w3.org/2000/svg" xmlns:xlink="http://www.w3.org/1999/xlink" style="margin: auto; background: none; display: block; shape-rendering: auto;" width="321px" height="321px" viewBox="0 0 100 100" preserveAspectRatio="xMidYMid">
<g transform="rotate(0 50 50)">
  <rect x="47.5" y="28" rx="2.04" ry="2.04" width="5" height="12" fill="#ff8d11">
    <animate attributeName="opacity" values="1;0" keyTimes="0;1" dur="1.0526315789473684s" begin="-0.9569377990430621s" repeatCount="indefinite"></animate>
  </rect>
</g><g transform="rotate(32.72727272727273 50 50)">
  <rect x="47.5" y="28" rx="2.04" ry="2.04" width="5" height="12" fill="#ff8d11">
    <animate attributeName="opacity" values="1;0" keyTimes="0;1" dur="1.0526315789473684s" begin="-0.8612440191387559s" repeatCount="indefinite"></animate>
  </rect>
</g><g transform="rotate(65.45454545454545 50 50)">
  <rect x="47.5" y="28" rx="2.04" ry="2.04" width="5" height="12" fill="#ff8d11">
    <animate attributeName="opacity" values="1;0" keyTimes="0;1" dur="1.0526315789473684s" begin="-0.7655502392344496s" repeatCount="indefinite"></animate>
  </rect>
</g><g transform="rotate(98.18181818181819 50 50)">
  <rect x="47.5" y="28" rx="2.04" ry="2.04" width="5" height="12" fill="#ff8d11">
    <animate attributeName="opacity" values="1;0" keyTimes="0;1" dur="1.0526315789473684s" begin="-0.6698564593301435s" repeatCount="indefinite"></animate>
  </rect>
</g><g transform="rotate(130.9090909090909 50 50)">
  <rect x="47.5" y="28" rx="2.04" ry="2.04" width="5" height="12" fill="#ff8d11">
    <animate attributeName="opacity" values="1;0" keyTimes="0;1" dur="1.0526315789473684s" begin="-0.5741626794258372s" repeatCount="indefinite"></animate>
  </rect>
</g><g transform="rotate(163.63636363636363 50 50)">
  <rect x="47.5" y="28" rx="2.04" ry="2.04" width="5" height="12" fill="#ff8d11">
    <animate attributeName="opacity" values="1;0" keyTimes="0;1" dur="1.0526315789473684s" begin="-0.47846889952153104s" repeatCount="indefinite"></animate>
  </rect>
</g><g transform="rotate(196.36363636363637 50 50)">
  <rect x="47.5" y="28" rx="2.04" ry="2.04" width="5" height="12" fill="#ff8d11">
    <animate attributeName="opacity" values="1;0" keyTimes="0;1" dur="1.0526315789473684s" begin="-0.3827751196172248s" repeatCount="indefinite"></animate>
  </rect>
</g><g transform="rotate(229.0909090909091 50 50)">
  <rect x="47.5" y="28" rx="2.04" ry="2.04" width="5" height="12" fill="#ff8d11">
    <animate attributeName="opacity" values="1;0" keyTimes="0;1" dur="1.0526315789473684s" begin="-0.2870813397129186s" repeatCount="indefinite"></animate>
  </rect>
</g><g transform="rotate(261.8181818181818 50 50)">
  <rect x="47.5" y="28" rx="2.04" ry="2.04" width="5" height="12" fill="#ff8d11">
    <animate attributeName="opacity" values="1;0" keyTimes="0;1" dur="1.0526315789473684s" begin="-0.1913875598086124s" repeatCount="indefinite"></animate>
  </rect>
</g><g transform="rotate(294.54545454545456 50 50)">
  <rect x="47.5" y="28" rx="2.04" ry="2.04" width="5" height="12" fill="#ff8d11">
    <animate attributeName="opacity" values="1;0" keyTimes="0;1" dur="1.0526315789473684s" begin="-0.0956937799043062s" repeatCount="indefinite"></animate>
  </rect>
</g><g transform="rotate(327.27272727272725 50 50)">
  <rect x="47.5" y="28" rx="2.04" ry="2.04" width="5" height="12" fill="#ff8d11">
    <animate attributeName="opacity" values="1;0" keyTimes="0;1" dur="1.0526315789473684s" begin="0s" repeatCount="indefinite"></animate>
  </rect>
</g>
<!-- [ldio] generated by https://loading.io/ --></svg>